<svg xmlns="http://www.w3.org/2000/svg" xmlns:xlink="http://www.w3.org/1999/xlink" width="313px" height="444px" viewBox="0 0 313 444" version="1.1">
    <!-- Generator: Sketch 42 (36781) - http://www.bohemiancoding.com/sketch -->
    <title>triangle pa\ttern copy</title>
    <desc>Created with Sketch.</desc>
    <defs>
        <filter x="-50%" y="-50%" width="200%" height="200%" filterUnits="objectBoundingBox" id="filter-1">
            <feGaussianBlur stdDeviation="2" in="SourceGraphic"/>
        </filter>
        <filter x="-50%" y="-50%" width="200%" height="200%" filterUnits="objectBoundingBox" id="filter-2">
            <feGaussianBlur stdDeviation="0.239955357" in="SourceGraphic"/>
        </filter>
        <filter x="-50%" y="-50%" width="200%" height="200%" filterUnits="objectBoundingBox" id="filter-3">
            <feGaussianBlur stdDeviation="0.239955357" in="SourceGraphic"/>
        </filter>
        <filter x="-50%" y="-50%" width="200%" height="200%" filterUnits="objectBoundingBox" id="filter-4">
            <feGaussianBlur stdDeviation="0.239955357" in="SourceGraphic"/>
        </filter>
        <filter x="-50%" y="-50%" width="200%" height="200%" filterUnits="objectBoundingBox" id="filter-5">
            <feGaussianBlur stdDeviation="0.239955357" in="SourceGraphic"/>
        </filter>
        <filter x="-50%" y="-50%" width="200%" height="200%" filterUnits="objectBoundingBox" id="filter-6">
            <feGaussianBlur stdDeviation="2" in="SourceGraphic"/>
        </filter>
        <filter x="-50%" y="-50%" width="200%" height="200%" filterUnits="objectBoundingBox" id="filter-7">
            <feGaussianBlur stdDeviation="0.239955357" in="SourceGraphic"/>
        </filter>
        <filter x="-50%" y="-50%" width="200%" height="200%" filterUnits="objectBoundingBox" id="filter-8">
            <feGaussianBlur stdDeviation="0.239955357" in="SourceGraphic"/>
        </filter>
        <filter x="-50%" y="-50%" width="200%" height="200%" filterUnits="objectBoundingBox" id="filter-9">
            <feGaussianBlur stdDeviation="0.239955357" in="SourceGraphic"/>
        </filter>
        <filter x="-50%" y="-50%" width="200%" height="200%" filterUnits="objectBoundingBox" id="filter-10">
            <feGaussianBlur stdDeviation="0.239955357" in="SourceGraphic"/>
        </filter>
        <filter x="-50%" y="-50%" width="200%" height="200%" filterUnits="objectBoundingBox" id="filter-11">
            <feGaussianBlur stdDeviation="0.239955357" in="SourceGraphic"/>
        </filter>
        <filter x="-50%" y="-50%" width="200%" height="200%" filterUnits="objectBoundingBox" id="filter-12">
            <feGaussianBlur stdDeviation="0.239955357" in="SourceGraphic"/>
        </filter>
        <filter x="-50%" y="-50%" width="200%" height="200%" filterUnits="objectBoundingBox" id="filter-13">
            <feGaussianBlur stdDeviation="0.239955357" in="SourceGraphic"/>
        </filter>
        <filter x="-50%" y="-50%" width="200%" height="200%" filterUnits="objectBoundingBox" id="filter-14">
            <feGaussianBlur stdDeviation="0.239955357" in="SourceGraphic"/>
        </filter>
        <filter x="-50%" y="-50%" width="200%" height="200%" filterUnits="objectBoundingBox" id="filter-15">
            <feGaussianBlur stdDeviation="2" in="SourceGraphic"/>
        </filter>
        <filter x="-50%" y="-50%" width="200%" height="200%" filterUnits="objectBoundingBox" id="filter-16">
            <feGaussianBlur stdDeviation="0.239955357" in="SourceGraphic"/>
        </filter>
        <filter x="-50%" y="-50%" width="200%" height="200%" filterUnits="objectBoundingBox" id="filter-17">
            <feGaussianBlur stdDeviation="0.239955357" in="SourceGraphic"/>
        </filter>
        <filter x="-50%" y="-50%" width="200%" height="200%" filterUnits="objectBoundingBox" id="filter-18">
            <feGaussianBlur stdDeviation="0.239955357" in="SourceGraphic"/>
        </filter>
        <filter x="-50%" y="-50%" width="200%" height="200%" filterUnits="objectBoundingBox" id="filter-19">
            <feGaussianBlur stdDeviation="0.239955357" in="SourceGraphic"/>
        </filter>
        <filter x="-50%" y="-50%" width="200%" height="200%" filterUnits="objectBoundingBox" id="filter-20">
            <feGaussianBlur stdDeviation="0.239955357" in="SourceGraphic"/>
        </filter>
        <filter x="-50%" y="-50%" width="200%" height="200%" filterUnits="objectBoundingBox" id="filter-21">
            <feGaussianBlur stdDeviation="0.239955357" in="SourceGraphic"/>
        </filter>
        <filter x="-50%" y="-50%" width="200%" height="200%" filterUnits="objectBoundingBox" id="filter-22">
            <feGaussianBlur stdDeviation="2" in="SourceGraphic"/>
        </filter>
        <filter x="-50%" y="-50%" width="200%" height="200%" filterUnits="objectBoundingBox" id="filter-23">
            <feGaussianBlur stdDeviation="0.239955357" in="SourceGraphic"/>
        </filter>
        <filter x="-50%" y="-50%" width="200%" height="200%" filterUnits="objectBoundingBox" id="filter-24">
            <feGaussianBlur stdDeviation="2" in="SourceGraphic"/>
        </filter>
        <filter x="-50%" y="-50%" width="200%" height="200%" filterUnits="objectBoundingBox" id="filter-25">
            <feGaussianBlur stdDeviation="0.239955357" in="SourceGraphic"/>
        </filter>
        <filter x="-50%" y="-50%" width="200%" height="200%" filterUnits="objectBoundingBox" id="filter-26">
            <feGaussianBlur stdDeviation="0.239955357" in="SourceGraphic"/>
        </filter>
        <filter x="-50%" y="-50%" width="200%" height="200%" filterUnits="objectBoundingBox" id="filter-27">
            <feGaussianBlur stdDeviation="0.239955357" in="SourceGraphic"/>
        </filter>
        <filter x="-50%" y="-50%" width="200%" height="200%" filterUnits="objectBoundingBox" id="filter-28">
            <feGaussianBlur stdDeviation="0.239955357" in="SourceGraphic"/>
        </filter>
        <filter x="-50%" y="-50%" width="200%" height="200%" filterUnits="objectBoundingBox" id="filter-29">
            <feGaussianBlur stdDeviation="0.239955357" in="SourceGraphic"/>
        </filter>
        <filter x="-50%" y="-50%" width="200%" height="200%" filterUnits="objectBoundingBox" id="filter-30">
            <feGaussianBlur stdDeviation="0.239955357" in="SourceGraphic"/>
        </filter>
        <filter x="-50%" y="-50%" width="200%" height="200%" filterUnits="objectBoundingBox" id="filter-31">
            <feGaussianBlur stdDeviation="0.239955357" in="SourceGraphic"/>
        </filter>
        <filter x="-50%" y="-50%" width="200%" height="200%" filterUnits="objectBoundingBox" id="filter-32">
            <feGaussianBlur stdDeviation="2" in="SourceGraphic"/>
        </filter>
    </defs>
    <g id="Desktop" stroke="none" stroke-width="1" fill="none" fill-rule="evenodd" opacity="0.5">
        <g id="Customer-Story-with-Video-+-Company-Info" transform="translate(-1127.000000, -2336.000000)" fill="#FFFFFF">
            <g id="Last-CTA" transform="translate(0.000000, 2336.000000)">
                <g id="triangle-pa\ttern-copy" transform="translate(1127.000000, -64.000000)">
                    <g id="triangle-parttern" opacity="0.50761096">
                        <path d="M294.156713,88.6631169 L341.451104,88.6631169 L317.804161,47.7982505 L294.156713,88.6631169 Z M343.836605,90.0373764 L291.771212,90.0373764 L317.804161,45.0497316 L343.836605,90.0373764 Z" id="Fill-7" filter="url(#filter-1)" transform="translate(317.803909, 67.543554) rotate(8.000000) translate(-317.803909, -67.543554) "/>
                        <path d="M114.312506,245.539667 L161.606897,245.539667 L137.959954,204.674298 L114.312506,245.539667 Z M163.992398,246.913424 L111.927005,246.913424 L137.959954,201.926282 L163.992398,246.913424 Z" id="Fill-18" filter="url(#filter-2)" transform="translate(137.959702, 224.419853) rotate(8.000000) translate(-137.959702, -224.419853) "/>
                        <path d="M165.865216,252.757581 L213.159607,252.757581 L189.512663,211.892212 L165.865216,252.757581 Z M215.545108,254.131338 L163.479715,254.131338 L189.512663,209.144196 L215.545108,254.131338 Z" id="Fill-20" filter="url(#filter-3)" transform="translate(189.512412, 231.637767) rotate(8.000000) translate(-189.512412, -231.637767) "/>
                        <path d="M178.457909,163.494111 L225.7523,163.494111 L202.105356,122.628742 L178.457909,163.494111 Z M228.137801,164.867868 L176.072408,164.867868 L202.105356,119.880726 L228.137801,164.867868 Z" id="Fill-21" opacity="0.0570652174" filter="url(#filter-4)" transform="translate(202.105105, 142.374297) rotate(8.000000) translate(-202.105105, -142.374297) "/>
                        <path d="M146.385239,204.516665 L193.67963,204.516665 L170.032687,163.651799 L146.385239,204.516665 Z M196.065131,205.890422 L143.999738,205.890422 L170.032687,160.90328 L196.065131,205.890422 Z" id="Fill-22" opacity="0.207653986" filter="url(#filter-5)" transform="translate(170.032435, 183.396851) rotate(8.000000) translate(-170.032435, -183.396851) "/>
                        <path d="M197.937949,211.734579 L245.23234,211.734579 L221.585396,170.869713 L197.937949,211.734579 Z M247.617841,213.108336 L195.552448,213.108336 L221.585396,168.121194 L247.617841,213.108336 Z" id="Fill-23" filter="url(#filter-6)" transform="translate(221.585144, 190.614765) rotate(8.000000) translate(-221.585144, -190.614765) "/>
                        <path d="M94.8325297,197.298751 L142.12692,197.298751 L118.479977,156.433885 L94.8325297,197.298751 Z M144.512422,198.672508 L92.4470284,198.672508 L118.479977,153.685366 L144.512422,198.672508 Z" id="Fill-25" opacity="0.362205616" filter="url(#filter-7)" transform="translate(118.479725, 176.178937) rotate(8.000000) translate(-118.479725, -176.178937) "/>
                        <path d="M268.971135,267.193479 L316.265525,267.193479 L292.618582,226.32811 L268.971135,267.193479 Z M318.651027,268.567236 L266.585633,268.567236 L292.618582,223.580094 L318.651027,268.567236 Z" id="Fill-26" filter="url(#filter-8)" transform="translate(292.618330, 246.073665) rotate(8.000000) translate(-292.618330, -246.073665) "/>
                        <path d="M229.844486,170.688765 L277.138876,170.688765 L253.491933,129.823396 L229.844486,170.688765 Z M279.524378,172.062522 L227.458984,172.062522 L253.491933,127.07538 L279.524378,172.062522 Z" id="Fill-29" opacity="0.17725317" filter="url(#filter-9)" transform="translate(253.491681, 149.568951) rotate(8.000000) translate(-253.491681, -149.568951) "/>
                        <path d="M301.065759,225.767357 L348.36015,225.767357 L324.713207,184.902491 L301.065759,225.767357 Z M350.745651,227.141114 L298.680258,227.141114 L324.713207,182.153972 L350.745651,227.141114 Z" id="Fill-30" opacity="0.296931612" filter="url(#filter-10)" transform="translate(324.712955, 204.647543) rotate(8.000000) translate(-324.712955, -204.647543) "/>
                        <path d="M249.491158,218.952563 L296.785548,218.952563 L273.138605,178.087697 L249.491158,218.952563 Z M299.17105,220.32632 L247.105656,220.32632 L273.138605,175.339178 L299.17105,220.32632 Z" id="Fill-33" opacity="0.450803895" filter="url(#filter-11)" transform="translate(273.138353, 197.832749) rotate(8.000000) translate(-273.138353, -197.832749) "/>
                        <path d="M121.365759,383.070286 L168.660149,383.070286 L145.013206,342.204917 L121.365759,383.070286 Z M171.045651,384.444043 L118.980257,384.444043 L145.013206,339.4569 L171.045651,384.444043 Z" id="Fill-34" filter="url(#filter-12)" transform="translate(145.012954, 361.950472) rotate(8.000000) translate(-145.012954, -361.950472) "/>
                        <path d="M172.918468,390.2882 L220.212859,390.2882 L196.565916,349.422831 L172.918468,390.2882 Z M222.59836,391.661957 L170.532967,391.661957 L196.565916,346.674814 L222.59836,391.661957 Z" id="Fill-36" filter="url(#filter-13)" transform="translate(196.565664, 369.168386) rotate(8.000000) translate(-196.565664, -369.168386) "/>
                        <path d="M185.511161,301.02473 L232.805552,301.02473 L209.158609,260.159361 L185.511161,301.02473 Z M235.191053,302.398486 L183.12566,302.398486 L209.158609,257.411344 L235.191053,302.398486 Z" id="Fill-37" opacity="0.296931612" filter="url(#filter-14)" transform="translate(209.158357, 279.904915) rotate(8.000000) translate(-209.158357, -279.904915) "/>
                        <path d="M153.438492,342.047284 L200.732882,342.047284 L177.085939,301.182417 L153.438492,342.047284 Z M203.118384,343.421041 L151.05299,343.421041 L177.085939,298.433898 L203.118384,343.421041 Z" id="Fill-39" filter="url(#filter-15)" transform="translate(177.085687, 320.927469) rotate(8.000000) translate(-177.085687, -320.927469) "/>
                        <path d="M204.991201,349.265198 L252.285592,349.265198 L228.638649,308.400331 L204.991201,349.265198 Z M254.671093,350.638955 L202.6057,350.638955 L228.638649,305.651812 L254.671093,350.638955 Z" id="Fill-40" filter="url(#filter-16)" transform="translate(228.638397, 328.145384) rotate(8.000000) translate(-228.638397, -328.145384) "/>
                        <path d="M101.885782,334.82937 L149.180173,334.82937 L125.533229,293.964503 L101.885782,334.82937 Z M151.565674,336.203126 L99.5002806,336.203126 L125.533229,291.215984 L151.565674,336.203126 Z" id="Fill-42" filter="url(#filter-17)" transform="translate(125.532977, 313.709555) rotate(8.000000) translate(-125.532977, -313.709555) "/>
                        <path d="M276.024387,404.724098 L323.318777,404.724098 L299.671834,363.858729 L276.024387,404.724098 Z M325.704279,406.097855 L273.638885,406.097855 L299.671834,361.110712 L325.704279,406.097855 Z" id="Fill-43" opacity="0.114696558" filter="url(#filter-18)" transform="translate(299.671582, 383.604284) rotate(8.000000) translate(-299.671582, -383.604284) "/>
                        <path d="M236.897738,308.219383 L284.192128,308.219383 L260.545185,267.354014 L236.897738,308.219383 Z M286.57763,309.59314 L234.512237,309.59314 L260.545185,264.605998 L286.57763,309.59314 Z" id="Fill-46" opacity="0.17725317" filter="url(#filter-19)" transform="translate(260.544933, 287.099569) rotate(8.000000) translate(-260.544933, -287.099569) "/>
                        <path d="M308.09712,363.701096 L355.39151,363.701096 L331.744567,322.836229 L308.09712,363.701096 Z M357.777012,365.074853 L305.711618,365.074853 L331.744567,320.08771 L357.777012,365.074853 Z" id="Fill-47" opacity="0.0570652174" filter="url(#filter-20)" transform="translate(331.744315, 342.581281) rotate(8.000000) translate(-331.744315, -342.581281) "/>
                        <path d="M256.54441,356.483182 L303.838801,356.483182 L280.191857,315.618315 L256.54441,356.483182 Z M306.224302,357.856938 L254.158909,357.856938 L280.191857,312.869796 L306.224302,357.856938 Z" id="Fill-50" opacity="0.332993659" filter="url(#filter-21)" transform="translate(280.191605, 335.363367) rotate(8.000000) translate(-280.191605, -335.363367) "/>
                        <path d="M25.1469594,506.141746 L72.44135,506.141746 L48.7944066,465.276377 L25.1469594,506.141746 Z M74.8268513,507.515503 L22.761458,507.515503 L48.7944066,462.52836 L74.8268513,507.515503 Z" id="Fill-51" filter="url(#filter-22)" transform="translate(48.794155, 485.021932) rotate(8.000000) translate(-48.794155, -485.021932) "/>
                        <path d="M74.3143417,514.733609 L126.379231,514.733609 L100.346786,469.746467 L74.3143417,514.733609 Z M100.346786,472.494483 L123.99373,513.359852 L76.699843,513.359852 L100.346786,472.494483 Z" id="Fill-53" filter="url(#filter-23)" transform="translate(100.346786, 492.240038) rotate(8.000000) translate(-100.346786, -492.240038) "/>
                        <path d="M89.2923621,424.09619 L136.586753,424.09619 L112.939809,383.230821 L89.2923621,424.09619 Z M138.972254,425.469946 L86.9068607,425.469946 L112.939809,380.482804 L138.972254,425.469946 Z" id="Fill-54" filter="url(#filter-24)" transform="translate(112.939557, 402.976375) rotate(8.000000) translate(-112.939557, -402.976375) "/>
                        <path d="M57.2196923,465.118744 L104.514083,465.118744 L80.8671395,424.253877 L57.2196923,465.118744 Z M106.899584,466.492501 L54.834191,466.492501 L80.8671395,421.505358 L106.899584,466.492501 Z" id="Fill-55" filter="url(#filter-25)" transform="translate(80.866888, 443.998929) rotate(8.000000) translate(-80.866888, -443.998929) "/>
                        <path d="M108.772402,472.336658 L156.066793,472.336658 L132.419849,431.471791 L108.772402,472.336658 Z M158.452294,473.710415 L106.386901,473.710415 L132.419849,428.723272 L158.452294,473.710415 Z" id="Fill-56" opacity="0.390794837" filter="url(#filter-26)" transform="translate(132.419597, 451.216844) rotate(8.000000) translate(-132.419597, -451.216844) "/>
                        <path d="M3.28151953,459.274658 L55.3464091,459.274658 L29.3144681,414.287516 L3.28151953,459.274658 Z M29.3144681,417.036035 L52.9614115,457.900901 L5.66702088,457.900901 L29.3144681,417.036035 Z" id="Fill-58" filter="url(#filter-27)" transform="translate(29.313964, 436.781087) rotate(8.000000) translate(-29.313964, -436.781087) "/>
                        <path d="M177.42026,529.169507 L229.48515,529.169507 L203.452705,484.182365 L177.42026,529.169507 Z M203.452705,486.930381 L227.099648,527.79575 L179.805761,527.79575 L203.452705,486.930381 Z" id="Fill-59" filter="url(#filter-28)" transform="translate(203.452705, 506.675936) rotate(8.000000) translate(-203.452705, -506.675936) "/>
                        <path d="M231.358297,535.013472 L278.652688,535.013472 L255.005744,494.148103 L231.358297,535.013472 Z M281.038189,536.387229 L228.972796,536.387229 L255.005744,491.400087 L281.038189,536.387229 Z" id="Fill-60" opacity="0.296931612" filter="url(#filter-29)" transform="translate(255.005492, 513.893658) rotate(8.000000) translate(-255.005492, -513.893658) "/>
                        <path d="M140.678938,431.290843 L187.973329,431.290843 L164.326386,390.425474 L140.678938,431.290843 Z M190.35883,432.6646 L138.293437,432.6646 L164.326386,387.677458 L190.35883,432.6646 Z" id="Fill-62" filter="url(#filter-30)" transform="translate(164.326134, 410.171029) rotate(8.000000) translate(-164.326134, -410.171029) "/>
                        <path d="M211.87832,486.772556 L259.172711,486.772556 L235.525768,445.907689 L211.87832,486.772556 Z M261.558212,488.146313 L209.492819,488.146313 L235.525768,443.15917 L261.558212,488.146313 Z" id="Fill-63" opacity="0.296931612" filter="url(#filter-31)" transform="translate(235.525516, 465.652741) rotate(8.000000) translate(-235.525516, -465.652741) "/>
                        <path d="M160.325611,479.554642 L207.620001,479.554642 L183.973058,438.689775 L160.325611,479.554642 Z M210.005503,480.928398 L157.940109,480.928398 L183.973058,435.941256 L210.005503,480.928398 Z" id="Fill-66" filter="url(#filter-32)" transform="translate(183.972806, 458.434827) rotate(8.000000) translate(-183.972806, -458.434827) "/>
                    </g>
                </g>
            </g>
        </g>
    </g>
</svg>