<svg xmlns="http://www.w3.org/2000/svg" xmlns:xlink="http://www.w3.org/1999/xlink" width="405px" height="445px" viewBox="0 0 405 445" version="1.1">
    <!-- Generator: Sketch 42 (36781) - http://www.bohemiancoding.com/sketch -->
    <title>triangle pa\ttern copy 2</title>
    <desc>Created with Sketch.</desc>
    <defs>
        <filter x="-50%" y="-50%" width="200%" height="200%" filterUnits="objectBoundingBox" id="filter-1">
            <feGaussianBlur stdDeviation="2" in="SourceGraphic"/>
        </filter>
        <filter x="-50%" y="-50%" width="200%" height="200%" filterUnits="objectBoundingBox" id="filter-2">
            <feGaussianBlur stdDeviation="0.239955357" in="SourceGraphic"/>
        </filter>
        <filter x="-50%" y="-50%" width="200%" height="200%" filterUnits="objectBoundingBox" id="filter-3">
            <feGaussianBlur stdDeviation="0.239955357" in="SourceGraphic"/>
        </filter>
        <filter x="-50%" y="-50%" width="200%" height="200%" filterUnits="objectBoundingBox" id="filter-4">
            <feGaussianBlur stdDeviation="2" in="SourceGraphic"/>
        </filter>
        <filter x="-50%" y="-50%" width="200%" height="200%" filterUnits="objectBoundingBox" id="filter-5">
            <feGaussianBlur stdDeviation="0.239955357" in="SourceGraphic"/>
        </filter>
        <filter x="-50%" y="-50%" width="200%" height="200%" filterUnits="objectBoundingBox" id="filter-6">
            <feGaussianBlur stdDeviation="0.239955357" in="SourceGraphic"/>
        </filter>
        <filter x="-50%" y="-50%" width="200%" height="200%" filterUnits="objectBoundingBox" id="filter-7">
            <feGaussianBlur stdDeviation="0.239955357" in="SourceGraphic"/>
        </filter>
        <filter x="-50%" y="-50%" width="200%" height="200%" filterUnits="objectBoundingBox" id="filter-8">
            <feGaussianBlur stdDeviation="0.239955357" in="SourceGraphic"/>
        </filter>
        <filter x="-50%" y="-50%" width="200%" height="200%" filterUnits="objectBoundingBox" id="filter-9">
            <feGaussianBlur stdDeviation="0.239955357" in="SourceGraphic"/>
        </filter>
        <filter x="-50%" y="-50%" width="200%" height="200%" filterUnits="objectBoundingBox" id="filter-10">
            <feGaussianBlur stdDeviation="0.239955357" in="SourceGraphic"/>
        </filter>
        <filter x="-50%" y="-50%" width="200%" height="200%" filterUnits="objectBoundingBox" id="filter-11">
            <feGaussianBlur stdDeviation="2" in="SourceGraphic"/>
        </filter>
        <filter x="-50%" y="-50%" width="200%" height="200%" filterUnits="objectBoundingBox" id="filter-12">
            <feGaussianBlur stdDeviation="0.239955357" in="SourceGraphic"/>
        </filter>
        <filter x="-50%" y="-50%" width="200%" height="200%" filterUnits="objectBoundingBox" id="filter-13">
            <feGaussianBlur stdDeviation="0.239955357" in="SourceGraphic"/>
        </filter>
        <filter x="-50%" y="-50%" width="200%" height="200%" filterUnits="objectBoundingBox" id="filter-14">
            <feGaussianBlur stdDeviation="0.239955357" in="SourceGraphic"/>
        </filter>
        <filter x="-50%" y="-50%" width="200%" height="200%" filterUnits="objectBoundingBox" id="filter-15">
            <feGaussianBlur stdDeviation="0.239955357" in="SourceGraphic"/>
        </filter>
        <filter x="-50%" y="-50%" width="200%" height="200%" filterUnits="objectBoundingBox" id="filter-16">
            <feGaussianBlur stdDeviation="0.239955357" in="SourceGraphic"/>
        </filter>
        <filter x="-50%" y="-50%" width="200%" height="200%" filterUnits="objectBoundingBox" id="filter-17">
            <feGaussianBlur stdDeviation="0.239955357" in="SourceGraphic"/>
        </filter>
        <filter x="-50%" y="-50%" width="200%" height="200%" filterUnits="objectBoundingBox" id="filter-18">
            <feGaussianBlur stdDeviation="0.239955357" in="SourceGraphic"/>
        </filter>
        <filter x="-50%" y="-50%" width="200%" height="200%" filterUnits="objectBoundingBox" id="filter-19">
            <feGaussianBlur stdDeviation="0.239955357" in="SourceGraphic"/>
        </filter>
        <filter x="-50%" y="-50%" width="200%" height="200%" filterUnits="objectBoundingBox" id="filter-20">
            <feGaussianBlur stdDeviation="0.239955357" in="SourceGraphic"/>
        </filter>
        <filter x="-50%" y="-50%" width="200%" height="200%" filterUnits="objectBoundingBox" id="filter-21">
            <feGaussianBlur stdDeviation="0.239955357" in="SourceGraphic"/>
        </filter>
        <filter x="-50%" y="-50%" width="200%" height="200%" filterUnits="objectBoundingBox" id="filter-22">
            <feGaussianBlur stdDeviation="0.239955357" in="SourceGraphic"/>
        </filter>
        <filter x="-50%" y="-50%" width="200%" height="200%" filterUnits="objectBoundingBox" id="filter-23">
            <feGaussianBlur stdDeviation="2" in="SourceGraphic"/>
        </filter>
        <filter x="-50%" y="-50%" width="200%" height="200%" filterUnits="objectBoundingBox" id="filter-24">
            <feGaussianBlur stdDeviation="0.239955357" in="SourceGraphic"/>
        </filter>
        <filter x="-50%" y="-50%" width="200%" height="200%" filterUnits="objectBoundingBox" id="filter-25">
            <feGaussianBlur stdDeviation="0.239955357" in="SourceGraphic"/>
        </filter>
        <filter x="-50%" y="-50%" width="200%" height="200%" filterUnits="objectBoundingBox" id="filter-26">
            <feGaussianBlur stdDeviation="0.239955357" in="SourceGraphic"/>
        </filter>
        <filter x="-50%" y="-50%" width="200%" height="200%" filterUnits="objectBoundingBox" id="filter-27">
            <feGaussianBlur stdDeviation="0.239955357" in="SourceGraphic"/>
        </filter>
        <filter x="-50%" y="-50%" width="200%" height="200%" filterUnits="objectBoundingBox" id="filter-28">
            <feGaussianBlur stdDeviation="0.239955357" in="SourceGraphic"/>
        </filter>
        <filter x="-50%" y="-50%" width="200%" height="200%" filterUnits="objectBoundingBox" id="filter-29">
            <feGaussianBlur stdDeviation="0.239955357" in="SourceGraphic"/>
        </filter>
        <filter x="-50%" y="-50%" width="200%" height="200%" filterUnits="objectBoundingBox" id="filter-30">
            <feGaussianBlur stdDeviation="0.239955357" in="SourceGraphic"/>
        </filter>
        <filter x="-50%" y="-50%" width="200%" height="200%" filterUnits="objectBoundingBox" id="filter-31">
            <feGaussianBlur stdDeviation="2" in="SourceGraphic"/>
        </filter>
        <filter x="-50%" y="-50%" width="200%" height="200%" filterUnits="objectBoundingBox" id="filter-32">
            <feGaussianBlur stdDeviation="0.239955357" in="SourceGraphic"/>
        </filter>
        <filter x="-50%" y="-50%" width="200%" height="200%" filterUnits="objectBoundingBox" id="filter-33">
            <feGaussianBlur stdDeviation="0.239955357" in="SourceGraphic"/>
        </filter>
        <filter x="-50%" y="-50%" width="200%" height="200%" filterUnits="objectBoundingBox" id="filter-34">
            <feGaussianBlur stdDeviation="0.239955357" in="SourceGraphic"/>
        </filter>
        <filter x="-50%" y="-50%" width="200%" height="200%" filterUnits="objectBoundingBox" id="filter-35">
            <feGaussianBlur stdDeviation="0.239955357" in="SourceGraphic"/>
        </filter>
        <filter x="-50%" y="-50%" width="200%" height="200%" filterUnits="objectBoundingBox" id="filter-36">
            <feGaussianBlur stdDeviation="2" in="SourceGraphic"/>
        </filter>
    </defs>
    <g id="Desktop" stroke="none" stroke-width="1" fill="none" fill-rule="evenodd" opacity="0.5">
        <g id="Customer-Story-with-Video-+-Company-Info" transform="translate(0.000000, -2409.000000)" fill="#FFFFFF">
            <g id="Last-CTA" transform="translate(0.000000, 2336.000000)">
                <g id="triangle-pa\ttern-copy-2" transform="translate(-103.000000, 31.000000)">
                    <g id="triangle-parttern" opacity="0.50761096">
                        <path d="M301.774318,91.0628309 L350.293463,91.0628309 L326.034149,49.0919354 L301.774318,91.0628309 Z M352.740741,92.4742854 L299.32704,92.4742854 L326.034149,46.2690263 L352.740741,92.4742854 Z" id="Fill-7" filter="url(#filter-1)" transform="translate(326.033890, 69.371656) rotate(8.000000) translate(-326.033890, -69.371656) "/>
                        <path d="M374.647044,148.022758 L423.16619,148.022758 L398.906875,106.051346 L374.647044,148.022758 Z M425.613467,149.433696 L372.199767,149.433696 L398.906875,103.228953 L425.613467,149.433696 Z" id="Fill-10" filter="url(#filter-2)" transform="translate(398.906617, 126.331325) rotate(8.000000) translate(-398.906617, -126.331325) "/>
                        <path d="M427.534784,155.436028 L476.05393,155.436028 L451.794615,113.464617 L427.534784,155.436028 Z M478.501207,156.846967 L425.087507,156.846967 L451.794615,110.642224 L478.501207,156.846967 Z" id="Fill-11" opacity="0.296931612" filter="url(#filter-3)" transform="translate(451.794357, 133.744595) rotate(8.000000) translate(-451.794357, -133.744595) "/>
                        <path d="M407.550309,105.889444 L456.069455,105.889444 L431.810141,63.9185485 L407.550309,105.889444 Z M458.516733,107.300899 L405.103032,107.300899 L431.810141,61.0956395 L458.516733,107.300899 Z" id="Fill-14" filter="url(#filter-4)" transform="translate(431.809882, 84.198269) rotate(8.000000) translate(-431.809882, -84.198269) "/>
                        <path d="M457.99084,114.714038 L511.404024,114.714038 L484.697949,68.5087792 L457.99084,114.714038 Z M484.697949,71.3316883 L508.957263,113.302584 L460.438118,113.302584 L484.697949,71.3316883 Z" id="Fill-16" opacity="0.0570652174" filter="url(#filter-5)" transform="translate(484.697432, 91.611409) rotate(8.000000) translate(-484.697432, -91.611409) "/>
                        <path d="M354.662569,98.4761734 L403.181715,98.4761734 L378.922401,56.5052778 L354.662569,98.4761734 Z M405.628992,99.8876279 L352.215292,99.8876279 L378.922401,53.6823688 L405.628992,99.8876279 Z" id="Fill-17" opacity="0.17725317" filter="url(#filter-6)" transform="translate(378.922142, 76.784998) rotate(8.000000) translate(-378.922142, -76.784998) "/>
                        <path d="M117.272791,252.185328 L165.791936,252.185328 L141.532622,210.213916 L117.272791,252.185328 Z M168.239214,253.596266 L114.825513,253.596266 L141.532622,207.391523 L168.239214,253.596266 Z" id="Fill-18" filter="url(#filter-7)" transform="translate(141.532363, 230.493895) rotate(8.000000) translate(-141.532363, -230.493895) "/>
                        <path d="M170.160531,259.598599 L218.679676,259.598599 L194.420362,217.627187 L170.160531,259.598599 Z M221.126954,261.009537 L167.713253,261.009537 L194.420362,214.804794 L221.126954,261.009537 Z" id="Fill-20" filter="url(#filter-8)" transform="translate(194.420103, 237.907165) rotate(8.000000) translate(-194.420103, -237.907165) "/>
                        <path d="M183.079329,167.919166 L231.598475,167.919166 L207.33916,125.947754 L183.079329,167.919166 Z M234.045752,169.330104 L180.632052,169.330104 L207.33916,123.125361 L234.045752,169.330104 Z" id="Fill-21" opacity="0.0570652174" filter="url(#filter-9)" transform="translate(207.338902, 146.227732) rotate(8.000000) translate(-207.338902, -146.227732) "/>
                        <path d="M150.176092,210.052017 L198.695238,210.052017 L174.435924,168.081121 L150.176092,210.052017 Z M201.142515,211.462955 L147.728815,211.462955 L174.435924,165.258212 L201.142515,211.462955 Z" id="Fill-22" opacity="0.207653986" filter="url(#filter-10)" transform="translate(174.435665, 188.360584) rotate(8.000000) translate(-174.435665, -188.360584) "/>
                        <path d="M203.063832,217.465287 L251.582978,217.465287 L227.323664,175.494392 L203.063832,217.465287 Z M254.030255,218.876226 L200.616555,218.876226 L227.323664,172.671483 L254.030255,218.876226 Z" id="Fill-23" filter="url(#filter-11)" transform="translate(227.323405, 195.773854) rotate(8.000000) translate(-227.323405, -195.773854) "/>
                        <path d="M97.2883522,202.638746 L145.807498,202.638746 L121.548184,160.66785 L97.2883522,202.638746 Z M148.254775,204.049684 L94.8410749,204.049684 L121.548184,157.844941 L148.254775,204.049684 Z" id="Fill-25" opacity="0.362205616" filter="url(#filter-12)" transform="translate(121.547925, 180.947313) rotate(8.000000) translate(-121.547925, -180.947313) "/>
                        <path d="M275.936523,274.425212 L324.455668,274.425212 L300.196354,232.4538 L275.936523,274.425212 Z M326.902946,275.83615 L273.489245,275.83615 L300.196354,229.631407 L326.902946,275.83615 Z" id="Fill-26" filter="url(#filter-13)" transform="translate(300.196095, 252.733779) rotate(8.000000) translate(-300.196095, -252.733779) "/>
                        <path d="M328.824263,281.838482 L377.343408,281.838482 L353.084094,239.867071 L328.824263,281.838482 Z M379.790686,283.249421 L326.376985,283.249421 L353.084094,237.044678 L379.790686,283.249421 Z" id="Fill-27" opacity="0.450803895" filter="url(#filter-14)" transform="translate(353.083835, 260.147049) rotate(8.000000) translate(-353.083835, -260.147049) "/>
                        <path d="M235.796634,175.308546 L284.315779,175.308546 L260.056465,133.337135 L235.796634,175.308546 Z M286.763057,176.719485 L233.349356,176.719485 L260.056465,130.514742 L286.763057,176.719485 Z" id="Fill-29" opacity="0.17725317" filter="url(#filter-15)" transform="translate(260.056207, 153.617113) rotate(8.000000) translate(-260.056207, -153.617113) "/>
                        <path d="M308.862283,231.87787 L357.381429,231.87787 L333.122114,189.906974 L308.862283,231.87787 Z M359.828706,233.288808 L306.415006,233.288808 L333.122114,187.084065 L359.828706,233.288808 Z" id="Fill-30" opacity="0.296931612" filter="url(#filter-16)" transform="translate(333.121856, 210.186436) rotate(8.000000) translate(-333.121856, -210.186436) "/>
                        <path d="M334.005381,48.5582422 L382.524526,48.5582422 L358.265212,6.58734659 L334.005381,48.5582422 Z M384.971804,49.9691804 L331.558103,49.9691804 L358.265212,3.76443758 L384.971804,49.9691804 Z" id="Fill-30-Copy" opacity="0.296931612" filter="url(#filter-17)" transform="translate(358.264954, 26.866809) rotate(8.000000) translate(-358.264954, -26.866809) "/>
                        <path d="M361.727564,239.705171 L410.24671,239.705171 L385.987396,197.734276 L361.727564,239.705171 Z M412.693987,241.116109 L359.280287,241.116109 L385.987396,194.911367 L412.693987,241.116109 Z" id="Fill-32" opacity="0.450803895" filter="url(#filter-18)" transform="translate(385.987137, 218.013738) rotate(8.000000) translate(-385.987137, -218.013738) "/>
                        <path d="M255.952084,224.87863 L304.47123,224.87863 L280.211915,182.907734 L255.952084,224.87863 Z M306.918507,226.289568 L253.504807,226.289568 L280.211915,180.084825 L306.918507,226.289568 Z" id="Fill-33" opacity="0.450803895" filter="url(#filter-19)" transform="translate(280.211657, 203.187197) rotate(8.000000) translate(-280.211657, -203.187197) "/>
                        <path d="M124.508697,393.438285 L173.027842,393.438285 L148.768528,351.466873 L124.508697,393.438285 Z M175.47512,394.849223 L122.061419,394.849223 L148.768528,348.64448 L175.47512,394.849223 Z" id="Fill-34" filter="url(#filter-20)" transform="translate(148.768270, 371.746852) rotate(8.000000) translate(-148.768270, -371.746852) "/>
                        <path d="M177.396437,400.851556 L225.915583,400.851556 L201.656268,358.880144 L177.396437,400.851556 Z M228.36286,402.262494 L174.949159,402.262494 L201.656268,356.057751 L228.36286,402.262494 Z" id="Fill-36" filter="url(#filter-21)" transform="translate(201.656010, 379.160122) rotate(8.000000) translate(-201.656010, -379.160122) "/>
                        <path d="M190.315235,309.172123 L238.834381,309.172123 L214.575067,267.200711 L190.315235,309.172123 Z M241.281658,310.583061 L187.867958,310.583061 L214.575067,264.378318 L241.281658,310.583061 Z" id="Fill-37" opacity="0.296931612" filter="url(#filter-22)" transform="translate(214.574808, 287.480689) rotate(8.000000) translate(-214.574808, -287.480689) "/>
                        <path d="M157.411998,351.304974 L205.931144,351.304974 L181.67183,309.334078 L157.411998,351.304974 Z M208.378421,352.715912 L154.964721,352.715912 L181.67183,306.511169 L208.378421,352.715912 Z" id="Fill-39" filter="url(#filter-23)" transform="translate(181.671571, 329.613541) rotate(8.000000) translate(-181.671571, -329.613541) "/>
                        <path d="M210.299739,358.718244 L258.818884,358.718244 L234.55957,316.747349 L210.299739,358.718244 Z M261.266162,360.129183 L207.852461,360.129183 L234.55957,313.92444 L261.266162,360.129183 Z" id="Fill-40" filter="url(#filter-24)" transform="translate(234.559311, 337.026811) rotate(8.000000) translate(-234.559311, -337.026811) "/>
                        <path d="M104.524258,343.891703 L153.043404,343.891703 L128.78409,301.920807 L104.524258,343.891703 Z M155.490681,345.302641 L102.076981,345.302641 L128.78409,299.097898 L155.490681,345.302641 Z" id="Fill-42" filter="url(#filter-25)" transform="translate(128.783831, 322.200270) rotate(8.000000) translate(-128.783831, -322.200270) "/>
                        <path d="M283.172429,415.678169 L331.691574,415.678169 L307.43226,373.706757 L283.172429,415.678169 Z M334.138852,417.089107 L280.725151,417.089107 L307.43226,370.884364 L334.138852,417.089107 Z" id="Fill-43" opacity="0.114696558" filter="url(#filter-26)" transform="translate(307.432002, 393.986736) rotate(8.000000) translate(-307.432002, -393.986736) "/>
                        <path d="M243.03254,316.561503 L291.551686,316.561503 L267.292371,274.590092 L243.03254,316.561503 Z M293.998963,317.972442 L240.585263,317.972442 L267.292371,271.767699 L293.998963,317.972442 Z" id="Fill-46" opacity="0.17725317" filter="url(#filter-27)" transform="translate(267.292113, 294.870070) rotate(8.000000) translate(-267.292113, -294.870070) "/>
                        <path d="M316.07573,373.544858 L364.594876,373.544858 L340.335562,331.573962 L316.07573,373.544858 Z M367.042153,374.955796 L313.628453,374.955796 L340.335562,328.751053 L367.042153,374.955796 Z" id="Fill-47" opacity="0.0570652174" filter="url(#filter-28)" transform="translate(340.335303, 351.853424) rotate(8.000000) translate(-340.335303, -351.853424) "/>
                        <path d="M263.18799,366.131587 L311.707136,366.131587 L287.447822,324.160691 L263.18799,366.131587 Z M314.154413,367.542525 L260.740713,367.542525 L287.447822,321.337782 L314.154413,367.542525 Z" id="Fill-50" opacity="0.332993659" filter="url(#filter-29)" transform="translate(287.447563, 344.440154) rotate(8.000000) translate(-287.447563, -344.440154) "/>
                        <path d="M76.2388166,528.665145 L129.652,528.665145 L102.945408,482.460402 L76.2388166,528.665145 Z M102.945408,485.282795 L127.204723,527.254207 L78.6860939,527.254207 L102.945408,485.282795 Z" id="Fill-53" filter="url(#filter-30)" transform="translate(102.945408, 505.562774) rotate(8.000000) translate(-102.945408, -505.562774) "/>
                        <path d="M91.6047141,435.574577 L140.12386,435.574577 L115.864545,393.603165 L91.6047141,435.574577 Z M142.571137,436.985515 L89.1574368,436.985515 L115.864545,390.780772 L142.571137,436.985515 Z" id="Fill-54" filter="url(#filter-31)" transform="translate(115.864287, 413.883143) rotate(8.000000) translate(-115.864287, -413.883143) "/>
                        <path d="M58.7014772,477.707428 L107.220623,477.707428 L82.9613085,435.736532 L58.7014772,477.707428 Z M109.6679,479.118366 L56.2541999,479.118366 L82.9613085,432.913623 L109.6679,479.118366 Z" id="Fill-55" filter="url(#filter-32)" transform="translate(82.961050, 456.015995) rotate(8.000000) translate(-82.961050, -456.015995) "/>
                        <path d="M111.589217,485.120698 L160.108363,485.120698 L135.849049,443.149803 L111.589217,485.120698 Z M162.55564,486.531637 L109.14194,486.531637 L135.849049,440.326894 L162.55564,486.531637 Z" id="Fill-56" opacity="0.390794837" filter="url(#filter-33)" transform="translate(135.848790, 463.429265) rotate(8.000000) translate(-135.848790, -463.429265) "/>
                        <path d="M144.322019,442.963957 L192.841164,442.963957 L168.58185,400.992546 L144.322019,442.963957 Z M195.288442,444.374896 L141.874741,444.374896 L168.58185,398.170153 L195.288442,444.374896 Z" id="Fill-62" filter="url(#filter-34)" transform="translate(168.581591, 421.272524) rotate(8.000000) translate(-168.581591, -421.272524) "/>
                        <path d="M217.365209,499.947312 L265.884355,499.947312 L241.62504,457.976416 L217.365209,499.947312 Z M268.331632,501.35825 L214.917932,501.35825 L241.62504,455.153507 L268.331632,501.35825 Z" id="Fill-63" opacity="0.296931612" filter="url(#filter-35)" transform="translate(241.624782, 478.255878) rotate(8.000000) translate(-241.624782, -478.255878) "/>
                        <path d="M164.477469,492.534041 L212.996615,492.534041 L188.7373,450.563145 L164.477469,492.534041 Z M215.443892,493.944979 L162.030192,493.944979 L188.7373,447.740236 L215.443892,493.944979 Z" id="Fill-66" filter="url(#filter-36)" transform="translate(188.737042, 470.842608) rotate(8.000000) translate(-188.737042, -470.842608) "/>
                    </g>
                </g>
            </g>
        </g>
    </g>
</svg>